<svg
          width="245"
          height="39"
          viewBox="0 0 245 39"
          fill="none"
          xmlns="http://www.w3.org/2000/svg"
        >
          <path
            d="M20.1992 14.9043C20.1992 16.4863 20.1172 17.8984 19.9531 19.1406C19.7891 20.3828 19.5488 21.4902 19.2324 22.4629C18.9277 23.4238 18.5469 24.2617 18.0898 24.9766C17.6445 25.6797 17.1289 26.2832 16.543 26.7871C15.8398 27.4082 15.2363 27.7188 14.7324 27.7188C14.4863 27.7188 14.3633 27.5723 14.3633 27.2793C14.3633 27.1855 14.4512 27.0273 14.627 26.8047C14.8027 26.5703 14.9727 26.2949 15.1367 25.9785C16.0742 24.209 16.543 21.5254 16.543 17.9277C16.543 17.2832 16.543 16.5332 16.543 15.6777C16.543 14.8223 16.4844 13.9434 16.3672 13.041C16.2617 12.127 16.0742 11.2305 15.8047 10.3516C15.5352 9.47266 15.125 8.6875 14.5742 7.99609C14.0234 7.30469 13.3027 6.74805 12.4121 6.32617C11.5332 5.89258 10.4316 5.67578 9.10742 5.67578C8.07617 5.67578 7.06836 5.86914 6.08398 6.25586C5.09961 6.64258 4.12109 7.2168 3.14844 7.97852L2.58594 8.41797C2.48047 8.51172 2.36328 8.59375 2.23438 8.66406C2.10547 8.73438 2.01172 8.76953 1.95312 8.76953C1.70703 8.76953 1.58398 8.65234 1.58398 8.41797C1.58398 8.05469 1.83594 7.55078 2.33984 6.90625C3.39453 5.55859 4.63672 4.53906 6.06641 3.84766C7.49609 3.14453 9.00195 2.79297 10.584 2.79297C12.1777 2.79297 13.5723 3.0332 14.7676 3.51367C15.9746 3.99414 16.9766 4.73242 17.7734 5.72852C18.582 6.71289 19.1855 7.9668 19.584 9.49023C19.9941 11.0137 20.1992 12.8184 20.1992 14.9043ZM5.15234 9.38477C5.15234 9.49023 5.09375 9.85938 4.97656 10.4922C4.85938 11.1133 4.74219 11.9395 4.625 12.9707C4.50781 14.002 4.44922 15.0625 4.44922 16.1523C4.44922 16.9961 4.47266 17.7637 4.51953 18.4551C4.57812 19.1465 4.67188 19.873 4.80078 20.6348C4.92969 21.3965 5.12891 22.0645 5.39844 22.6387C5.66797 23.2012 6.00195 23.7227 6.40039 24.2031C6.79883 24.6719 7.30859 25.0352 7.92969 25.293C8.55078 25.5391 9.25977 25.6621 10.0566 25.6621C10.7598 25.6621 11.3809 25.5918 11.9199 25.4512C12.459 25.2988 12.875 25.1523 13.168 25.0117C13.4609 24.8711 13.6602 24.8008 13.7656 24.8008C14.0234 24.8008 14.1523 24.9414 14.1523 25.2227C14.1523 25.5156 14.041 25.8438 13.8184 26.207C13.5957 26.5703 13.2852 26.9336 12.8867 27.2969C12.4883 27.6484 11.9492 27.9414 11.2695 28.1758C10.5898 28.4219 9.85742 28.5449 9.07227 28.5449C7.49023 28.5449 6.1543 28.2871 5.06445 27.7715C3.97461 27.2441 3.11914 26.4531 2.49805 25.3984C1.88867 24.3438 1.44922 23.125 1.17969 21.7422C0.921875 20.3594 0.792969 18.7129 0.792969 16.8027C0.792969 13.9082 1.08594 11.9043 1.67188 10.791C2 10.1816 2.46875 9.68945 3.07812 9.31445C3.6875 8.92773 4.19727 8.73438 4.60742 8.73438C4.9707 8.73438 5.15234 8.95117 5.15234 9.38477ZM28.2852 10.9316C29.6328 9.94727 30.9922 9.45508 32.3633 9.45508C36.6758 9.45508 38.832 12.4082 38.832 18.3145C38.832 19.4512 38.709 20.6055 38.4629 21.7773C38.2285 22.9375 37.9004 23.9336 37.4785 24.7656C37.0332 25.6562 36.4883 26.4062 35.8438 27.0156C35.2109 27.625 34.6953 27.9297 34.2969 27.9297C34.0625 27.9297 33.9453 27.8184 33.9453 27.5957C33.9453 27.5254 33.9805 27.4375 34.0508 27.332C34.1328 27.2148 34.2441 27.0332 34.3848 26.7871C34.5254 26.541 34.6543 26.2598 34.7715 25.9434C35.252 24.6309 35.4922 22.7617 35.4922 20.3359C35.4922 18.9883 35.4219 17.8281 35.2812 16.8555C35.1523 15.8828 34.9238 15.0215 34.5957 14.2715C34.2793 13.5098 33.8281 12.9414 33.2422 12.5664C32.6562 12.1797 31.9297 11.9863 31.0625 11.9863C30.125 11.9863 29.2988 12.1738 28.584 12.5488C27.8691 12.9121 26.8203 13.6211 25.4375 14.6758C25.0625 14.9688 24.7695 15.1152 24.5586 15.1152C24.3242 15.1152 24.207 14.9277 24.207 14.5527V3.26758C24.207 2.63477 24.4941 2.10156 25.0684 1.66797C25.6543 1.22266 26.2168 1 26.7559 1C27.166 1 27.3711 1.25195 27.3711 1.75586L27.3184 10.6504C27.3184 11.0723 27.4121 11.2832 27.5996 11.2832C27.752 11.2832 27.9805 11.166 28.2852 10.9316ZM30.377 26.0137C31.1504 26.0137 31.8301 25.9258 32.416 25.75C33.0137 25.5742 33.3242 25.4863 33.3477 25.4863C33.5938 25.4863 33.7168 25.6152 33.7168 25.873C33.7168 26.4941 33.2832 27.0977 32.416 27.6836C31.5605 28.2578 30.4824 28.5449 29.1816 28.5449C27.6113 28.5449 26.3867 28.1934 25.5078 27.4902C24.6406 26.7871 24.207 25.5977 24.207 23.9219V17.9629C24.207 17.3301 24.3711 16.8262 24.6992 16.4512C25.0156 16.0879 25.3906 15.7598 25.8242 15.4668C26.2578 15.1738 26.5918 15.0273 26.8262 15.0273C27.1895 15.0273 27.3711 15.2793 27.3711 15.7832V22.8496C27.3828 23.998 27.6113 24.8125 28.0566 25.293C28.5137 25.7734 29.2871 26.0137 30.377 26.0137ZM46.4258 1.05273V3.67188C46.4258 4.29297 46.127 4.81445 45.5293 5.23633C44.9434 5.6582 44.3926 5.86914 43.877 5.86914C43.4668 5.86914 43.2617 5.61719 43.2617 5.11328V2.40625C43.2617 1.85547 43.5547 1.36914 44.1406 0.947266C44.7266 0.513672 45.2832 0.296875 45.8105 0.296875C46.2207 0.296875 46.4258 0.548828 46.4258 1.05273ZM46.4258 10.2109V31.5684C46.4258 32.6348 46.3086 33.5957 46.0742 34.4512C45.8398 35.3066 45.541 35.9746 45.1777 36.4551C44.8262 36.9355 44.4629 37.2988 44.0879 37.5449C43.7246 37.791 43.3789 37.9141 43.0508 37.9141C42.8281 37.9141 42.7168 37.8145 42.7168 37.6152C42.7168 37.5449 42.7871 37.3398 42.9277 37C43.0684 36.6719 43.1621 36.3203 43.209 35.9453C43.2676 35.5352 43.2969 34.8262 43.2969 33.8184L43.2617 11.7227C43.2617 11.2773 43.3672 10.9199 43.5781 10.6504C43.8828 10.2988 44.2402 10.0117 44.6504 9.78906C45.0723 9.56641 45.459 9.45508 45.8105 9.45508C46.2207 9.45508 46.4258 9.70703 46.4258 10.2109ZM39.377 35.418C39.7754 35.875 40.2207 36.1035 40.7129 36.1035C40.877 36.1035 41.0938 36.0332 41.3633 35.8926C41.6445 35.7637 41.8262 35.6992 41.9082 35.6992C42.1426 35.6992 42.2598 35.834 42.2598 36.1035C42.2598 36.291 42.1953 36.5195 42.0664 36.7891C41.9492 37.0586 41.7793 37.334 41.5566 37.6152C41.3457 37.8965 41.0527 38.1309 40.6777 38.3184C40.3027 38.5176 39.8984 38.6172 39.4648 38.6172C38.6328 38.6172 37.9531 38.4004 37.4258 37.9668C36.8984 37.5332 36.6348 37.1055 36.6348 36.6836C36.6348 36.2734 36.8516 35.8633 37.2852 35.4531C37.707 35.0664 38.0879 34.873 38.4277 34.873C38.7441 34.873 39.0605 35.0547 39.377 35.418ZM53.6504 16.8027C53.6504 17.1309 53.75 17.3418 53.9492 17.4355C54.1602 17.5176 54.4648 17.5586 54.8633 17.5586C55.8828 17.5586 56.7559 17.4707 57.4824 17.2949C58.209 17.1191 58.7656 16.873 59.1523 16.5566C59.5391 16.2402 59.8145 15.9062 59.9785 15.5547C60.1543 15.2031 60.2422 14.8164 60.2422 14.3945C60.2422 13.668 59.9902 13.0879 59.4863 12.6543C58.9824 12.209 58.1738 11.9863 57.0605 11.9863C55.3145 11.9863 53.6738 12.5371 52.1387 13.6387C51.6816 13.9785 51.3945 14.1484 51.2773 14.1484C51.0781 14.1484 50.9785 14.0371 50.9785 13.8145C50.9785 13.5215 51.1484 13.1641 51.4883 12.7422C52.1211 11.9336 52.8418 11.2715 53.6504 10.7559C54.459 10.2402 55.1973 9.89453 55.8652 9.71875C56.5332 9.54297 57.1953 9.45508 57.8516 9.45508C58.6953 9.45508 59.457 9.54297 60.1367 9.71875C60.8164 9.89453 61.4199 10.1699 61.9473 10.5449C62.4746 10.9082 62.8848 11.4121 63.1777 12.0566C63.4707 12.6895 63.6172 13.4336 63.6172 14.2891C63.6172 16.1172 62.7441 17.5293 60.998 18.5254C59.2637 19.5098 56.8906 20.002 53.8789 20.002C53.0352 20.002 52.0801 19.9551 51.0137 19.8613C50.4863 19.8262 50.2227 19.5684 50.2227 19.0879C50.2227 17.7871 50.4102 16.8145 50.7852 16.1699C51.1602 15.5137 51.6465 15.0098 52.2441 14.6582C52.8301 14.3184 53.2754 14.1484 53.5801 14.1484C53.8613 14.1484 54.002 14.3242 54.002 14.6758C54.002 14.8164 53.9434 15.1621 53.8262 15.7129C53.709 16.252 53.6504 16.6152 53.6504 16.8027ZM50.3633 21.707C50.3633 21.0977 50.6445 20.793 51.207 20.793H52.7188C53.0234 20.793 53.2344 20.8516 53.3516 20.9688C53.4805 21.0859 53.5801 21.3438 53.6504 21.7422C54.1074 24.5898 55.666 26.0137 58.3262 26.0137C58.9941 26.0137 59.6211 25.9316 60.207 25.7676C60.793 25.6035 61.2441 25.4219 61.5605 25.2227C61.8887 25.0234 62.1875 24.8418 62.457 24.6777C62.7383 24.5137 62.9434 24.4316 63.0723 24.4316C63.3418 24.4316 63.4766 24.5781 63.4766 24.8711C63.4766 25.1172 63.3418 25.4336 63.0723 25.8203C62.8027 26.207 62.416 26.6113 61.9121 27.0332C61.4199 27.4434 60.7344 27.7949 59.8555 28.0879C58.9883 28.3926 58.0449 28.5449 57.0254 28.5449C54.916 28.5449 53.2754 27.9121 52.1035 26.6465C50.9434 25.3691 50.3633 23.7227 50.3633 21.707ZM69.9277 19.0703C69.9277 23.6758 71.5684 25.9785 74.8496 25.9785C75.5293 25.9785 76.168 25.9023 76.7656 25.75C77.3633 25.5859 77.8203 25.4043 78.1367 25.2051C78.4648 25.0059 78.7695 24.8301 79.0508 24.6777C79.332 24.5137 79.5312 24.4316 79.6484 24.4316C79.9297 24.4316 80.0703 24.5664 80.0703 24.8359C80.0703 25.0938 79.918 25.4277 79.6133 25.8379C79.3086 26.2363 78.8984 26.6406 78.3828 27.0508C77.8672 27.4609 77.1992 27.8125 76.3789 28.1055C75.5703 28.3984 74.7266 28.5449 73.8477 28.5449C71.3867 28.5449 69.5645 27.8066 68.3809 26.3301C67.1973 24.8418 66.6055 22.709 66.6055 19.9316C66.6055 17.9746 66.8691 16.5977 67.3965 15.8008C67.666 15.3906 68.0762 15.0098 68.627 14.6582C69.1777 14.2949 69.6465 14.1133 70.0332 14.1133C70.3145 14.1133 70.4551 14.2773 70.4551 14.6055C70.4551 14.6172 70.3672 15.127 70.1914 16.1348C70.0156 17.1426 69.9277 18.1211 69.9277 19.0703ZM78.998 10.4746C79.3496 10.7441 79.5254 11.0195 79.5254 11.3008C79.5254 11.5938 79.291 11.9512 78.8223 12.373C78.3535 12.7832 77.9199 12.9883 77.5215 12.9883C77.1816 12.9883 76.7832 12.8828 76.3262 12.6719C75.3418 12.2148 74.4453 11.9863 73.6367 11.9863C71.8555 11.9863 70.1387 12.5605 68.4863 13.709C67.9824 14.0488 67.6777 14.2188 67.5723 14.2188C67.4082 14.2188 67.3262 14.1191 67.3262 13.9199C67.3262 13.7793 67.3906 13.5859 67.5195 13.3398C67.6484 13.0938 67.7656 12.9062 67.8711 12.7773C68.7617 11.6406 69.7461 10.8027 70.8242 10.2637C71.9023 9.72461 73.2676 9.45508 74.9199 9.45508C75.6582 9.45508 76.4141 9.54297 77.1875 9.71875C77.9609 9.89453 78.5645 10.1465 78.998 10.4746ZM88.3145 14.3945V20.5469C88.3145 21.5547 88.373 22.4102 88.4902 23.1133C88.6074 23.8047 88.7773 24.3672 89 24.8008C89.2344 25.2344 89.5215 25.5449 89.8613 25.7324C90.2129 25.9199 90.623 26.0137 91.0918 26.0137C91.6426 26.0137 92.0996 25.9492 92.4629 25.8203C92.8379 25.6797 93.1484 25.5332 93.3945 25.3809C93.6406 25.2168 93.8457 25.0703 94.0098 24.9414C94.1738 24.8008 94.3379 24.7305 94.502 24.7305C94.6543 24.7305 94.7656 24.7773 94.8359 24.8711C94.9062 24.9531 94.9414 25.0645 94.9414 25.2051C94.9414 25.4043 94.8594 25.6914 94.6953 26.0664C94.543 26.4297 94.2793 26.7988 93.9043 27.1738C93.5293 27.5371 93.0312 27.8535 92.4102 28.123C91.8008 28.4043 91.0332 28.5449 90.1074 28.5449C89.2051 28.5449 88.4375 28.416 87.8047 28.1582C87.1836 27.9004 86.6738 27.4844 86.2754 26.9102C85.877 26.3242 85.5898 25.5684 85.4141 24.6426C85.2383 23.7051 85.1504 22.5566 85.1504 21.1973V14.3945C85.1504 14.1367 85.2031 13.9434 85.3086 13.8145C85.4258 13.6738 85.5664 13.5742 85.7305 13.5156C85.9062 13.457 86.082 13.4277 86.2578 13.4277C86.4453 13.4277 86.6094 13.4277 86.75 13.4277C86.9609 13.4277 87.1602 13.4395 87.3477 13.4629C87.5469 13.4746 87.7168 13.5156 87.8574 13.5859C87.998 13.6445 88.1094 13.7383 88.1914 13.8672C88.2734 13.9961 88.3145 14.1719 88.3145 14.3945ZM84.2363 10.5801V11.582C84.2363 11.875 84.1719 12.1035 84.043 12.2676C83.9141 12.4316 83.668 12.5137 83.3047 12.5137H82.4785C82.0684 12.5137 81.8633 12.3848 81.8633 12.127C81.8633 11.8105 82.1152 11.377 82.6191 10.8262C83.1348 10.2754 83.5449 10 83.8496 10C84.1074 10 84.2363 10.1934 84.2363 10.5801ZM88.3145 6.80078V9.06836C88.3145 9.43164 88.3965 9.67773 88.5605 9.80664C88.7246 9.93555 88.9531 10 89.2461 10H93.957C94.3672 10 94.5723 10.1348 94.5723 10.4043C94.5723 10.6855 94.373 11.0371 93.9746 11.459C93.5879 11.8809 93.2012 12.1621 92.8145 12.3027C92.4395 12.4434 91.7656 12.5137 90.793 12.5137H86.082C85.7891 12.5137 85.5605 12.4492 85.3965 12.3203C85.2324 12.1914 85.1504 11.9453 85.1504 11.582V8.25977C85.1504 7.61523 85.4375 7.08789 86.0117 6.67773C86.5859 6.25586 87.1484 6.04492 87.6992 6.04492C88.1094 6.04492 88.3145 6.29688 88.3145 6.80078ZM108.828 6.20312H105.98C105.523 6.20312 105.295 6.0625 105.295 5.78125C105.295 5.52344 105.389 5.25977 105.576 4.99023C105.764 4.70898 106.004 4.45117 106.297 4.2168C106.602 3.98242 106.936 3.7832 107.299 3.61914C107.674 3.45508 108.037 3.36133 108.389 3.33789L109.795 3.30273C111.658 3.30273 113.393 3.53711 114.998 4.00586C116.604 4.46289 117.998 5.19531 119.182 6.20312C120.365 7.21094 121.291 8.50586 121.959 10.0879C122.639 11.6699 122.979 13.5859 122.979 15.8359C122.979 16.9023 122.867 17.9453 122.645 18.9648C122.434 19.9844 122.123 20.9453 121.713 21.8477C121.303 22.75 120.805 23.5762 120.219 24.3262C119.645 25.0762 119 25.7266 118.285 26.2773C117.57 26.8164 116.791 27.2383 115.947 27.543C115.104 27.8477 114.219 28 113.293 28C112.883 28 112.678 27.8652 112.678 27.5957C112.678 27.3848 112.807 27.2207 113.064 27.1035C114.061 26.6465 114.945 26.1133 115.719 25.5039C116.492 24.8945 117.143 24.168 117.67 23.3242C118.209 22.4688 118.613 21.4727 118.883 20.3359C119.164 19.1992 119.305 17.875 119.305 16.3633C119.305 14.8633 119.123 13.498 118.76 12.2676C118.408 11.0371 117.822 9.97656 117.002 9.08594C116.182 8.19531 115.104 7.50391 113.768 7.01172C112.432 6.50781 110.785 6.23828 108.828 6.20312ZM105.295 27.2441V8.3125C105.295 7.89062 105.436 7.60938 105.717 7.46875C106.01 7.32812 106.455 7.25781 107.053 7.25781C107.709 7.25781 108.166 7.32812 108.424 7.46875C108.693 7.59766 108.828 7.87891 108.828 8.3125V24.3965C108.828 24.877 109.068 25.1172 109.549 25.1172H112.467C112.971 25.1172 113.223 25.2637 113.223 25.5566C113.223 25.7324 113.041 25.9609 112.678 26.2422C112.326 26.5234 111.887 26.793 111.359 27.0508C110.832 27.3086 110.234 27.5312 109.566 27.7188C108.898 27.9062 108.289 28 107.738 28H106.016C105.535 28 105.295 27.748 105.295 27.2441ZM129.658 16.8027C129.658 17.1309 129.758 17.3418 129.957 17.4355C130.168 17.5176 130.473 17.5586 130.871 17.5586C131.891 17.5586 132.764 17.4707 133.49 17.2949C134.217 17.1191 134.773 16.873 135.16 16.5566C135.547 16.2402 135.822 15.9062 135.986 15.5547C136.162 15.2031 136.25 14.8164 136.25 14.3945C136.25 13.668 135.998 13.0879 135.494 12.6543C134.99 12.209 134.182 11.9863 133.068 11.9863C131.322 11.9863 129.682 12.5371 128.146 13.6387C127.689 13.9785 127.402 14.1484 127.285 14.1484C127.086 14.1484 126.986 14.0371 126.986 13.8145C126.986 13.5215 127.156 13.1641 127.496 12.7422C128.129 11.9336 128.85 11.2715 129.658 10.7559C130.467 10.2402 131.205 9.89453 131.873 9.71875C132.541 9.54297 133.203 9.45508 133.859 9.45508C134.703 9.45508 135.465 9.54297 136.145 9.71875C136.824 9.89453 137.428 10.1699 137.955 10.5449C138.482 10.9082 138.893 11.4121 139.186 12.0566C139.479 12.6895 139.625 13.4336 139.625 14.2891C139.625 16.1172 138.752 17.5293 137.006 18.5254C135.271 19.5098 132.898 20.002 129.887 20.002C129.043 20.002 128.088 19.9551 127.021 19.8613C126.494 19.8262 126.23 19.5684 126.23 19.0879C126.23 17.7871 126.418 16.8145 126.793 16.1699C127.168 15.5137 127.654 15.0098 128.252 14.6582C128.838 14.3184 129.283 14.1484 129.588 14.1484C129.869 14.1484 130.01 14.3242 130.01 14.6758C130.01 14.8164 129.951 15.1621 129.834 15.7129C129.717 16.252 129.658 16.6152 129.658 16.8027ZM126.371 21.707C126.371 21.0977 126.652 20.793 127.215 20.793H128.727C129.031 20.793 129.242 20.8516 129.359 20.9688C129.488 21.0859 129.588 21.3438 129.658 21.7422C130.115 24.5898 131.674 26.0137 134.334 26.0137C135.002 26.0137 135.629 25.9316 136.215 25.7676C136.801 25.6035 137.252 25.4219 137.568 25.2227C137.896 25.0234 138.195 24.8418 138.465 24.6777C138.746 24.5137 138.951 24.4316 139.08 24.4316C139.35 24.4316 139.484 24.5781 139.484 24.8711C139.484 25.1172 139.35 25.4336 139.08 25.8203C138.811 26.207 138.424 26.6113 137.92 27.0332C137.428 27.4434 136.742 27.7949 135.863 28.0879C134.996 28.3926 134.053 28.5449 133.033 28.5449C130.924 28.5449 129.283 27.9121 128.111 26.6465C126.951 25.3691 126.371 23.7227 126.371 21.707ZM147.975 14.3945V20.5469C147.975 21.5547 148.033 22.4102 148.15 23.1133C148.268 23.8047 148.438 24.3672 148.66 24.8008C148.895 25.2344 149.182 25.5449 149.521 25.7324C149.873 25.9199 150.283 26.0137 150.752 26.0137C151.303 26.0137 151.76 25.9492 152.123 25.8203C152.498 25.6797 152.809 25.5332 153.055 25.3809C153.301 25.2168 153.506 25.0703 153.67 24.9414C153.834 24.8008 153.998 24.7305 154.162 24.7305C154.314 24.7305 154.426 24.7773 154.496 24.8711C154.566 24.9531 154.602 25.0645 154.602 25.2051C154.602 25.4043 154.52 25.6914 154.355 26.0664C154.203 26.4297 153.939 26.7988 153.564 27.1738C153.189 27.5371 152.691 27.8535 152.07 28.123C151.461 28.4043 150.693 28.5449 149.768 28.5449C148.865 28.5449 148.098 28.416 147.465 28.1582C146.844 27.9004 146.334 27.4844 145.936 26.9102C145.537 26.3242 145.25 25.5684 145.074 24.6426C144.898 23.7051 144.811 22.5566 144.811 21.1973V14.3945C144.811 14.1367 144.863 13.9434 144.969 13.8145C145.086 13.6738 145.227 13.5742 145.391 13.5156C145.566 13.457 145.742 13.4277 145.918 13.4277C146.105 13.4277 146.27 13.4277 146.41 13.4277C146.621 13.4277 146.82 13.4395 147.008 13.4629C147.207 13.4746 147.377 13.5156 147.518 13.5859C147.658 13.6445 147.77 13.7383 147.852 13.8672C147.934 13.9961 147.975 14.1719 147.975 14.3945ZM143.896 10.5801V11.582C143.896 11.875 143.832 12.1035 143.703 12.2676C143.574 12.4316 143.328 12.5137 142.965 12.5137H142.139C141.729 12.5137 141.523 12.3848 141.523 12.127C141.523 11.8105 141.775 11.377 142.279 10.8262C142.795 10.2754 143.205 10 143.51 10C143.768 10 143.896 10.1934 143.896 10.5801ZM147.975 6.80078V9.06836C147.975 9.43164 148.057 9.67773 148.221 9.80664C148.385 9.93555 148.613 10 148.906 10H153.617C154.027 10 154.232 10.1348 154.232 10.4043C154.232 10.6855 154.033 11.0371 153.635 11.459C153.248 11.8809 152.861 12.1621 152.475 12.3027C152.1 12.4434 151.426 12.5137 150.453 12.5137H145.742C145.449 12.5137 145.221 12.4492 145.057 12.3203C144.893 12.1914 144.811 11.9453 144.811 11.582V8.25977C144.811 7.61523 145.098 7.08789 145.672 6.67773C146.246 6.25586 146.809 6.04492 147.359 6.04492C147.77 6.04492 147.975 6.29688 147.975 6.80078ZM160.174 16.8027C160.174 17.1309 160.273 17.3418 160.473 17.4355C160.684 17.5176 160.988 17.5586 161.387 17.5586C162.406 17.5586 163.279 17.4707 164.006 17.2949C164.732 17.1191 165.289 16.873 165.676 16.5566C166.062 16.2402 166.338 15.9062 166.502 15.5547C166.678 15.2031 166.766 14.8164 166.766 14.3945C166.766 13.668 166.514 13.0879 166.01 12.6543C165.506 12.209 164.697 11.9863 163.584 11.9863C161.838 11.9863 160.197 12.5371 158.662 13.6387C158.205 13.9785 157.918 14.1484 157.801 14.1484C157.602 14.1484 157.502 14.0371 157.502 13.8145C157.502 13.5215 157.672 13.1641 158.012 12.7422C158.645 11.9336 159.365 11.2715 160.174 10.7559C160.982 10.2402 161.721 9.89453 162.389 9.71875C163.057 9.54297 163.719 9.45508 164.375 9.45508C165.219 9.45508 165.98 9.54297 166.66 9.71875C167.34 9.89453 167.943 10.1699 168.471 10.5449C168.998 10.9082 169.408 11.4121 169.701 12.0566C169.994 12.6895 170.141 13.4336 170.141 14.2891C170.141 16.1172 169.268 17.5293 167.521 18.5254C165.787 19.5098 163.414 20.002 160.402 20.002C159.559 20.002 158.604 19.9551 157.537 19.8613C157.01 19.8262 156.746 19.5684 156.746 19.0879C156.746 17.7871 156.934 16.8145 157.309 16.1699C157.684 15.5137 158.17 15.0098 158.768 14.6582C159.354 14.3184 159.799 14.1484 160.104 14.1484C160.385 14.1484 160.525 14.3242 160.525 14.6758C160.525 14.8164 160.467 15.1621 160.35 15.7129C160.232 16.252 160.174 16.6152 160.174 16.8027ZM156.887 21.707C156.887 21.0977 157.168 20.793 157.73 20.793H159.242C159.547 20.793 159.758 20.8516 159.875 20.9688C160.004 21.0859 160.104 21.3438 160.174 21.7422C160.631 24.5898 162.189 26.0137 164.85 26.0137C165.518 26.0137 166.145 25.9316 166.73 25.7676C167.316 25.6035 167.768 25.4219 168.084 25.2227C168.412 25.0234 168.711 24.8418 168.98 24.6777C169.262 24.5137 169.467 24.4316 169.596 24.4316C169.865 24.4316 170 24.5781 170 24.8711C170 25.1172 169.865 25.4336 169.596 25.8203C169.326 26.207 168.939 26.6113 168.436 27.0332C167.943 27.4434 167.258 27.7949 166.379 28.0879C165.512 28.3926 164.568 28.5449 163.549 28.5449C161.439 28.5449 159.799 27.9121 158.627 26.6465C157.467 25.3691 156.887 23.7227 156.887 21.707ZM176.451 19.0703C176.451 23.6758 178.092 25.9785 181.373 25.9785C182.053 25.9785 182.691 25.9023 183.289 25.75C183.887 25.5859 184.344 25.4043 184.66 25.2051C184.988 25.0059 185.293 24.8301 185.574 24.6777C185.855 24.5137 186.055 24.4316 186.172 24.4316C186.453 24.4316 186.594 24.5664 186.594 24.8359C186.594 25.0938 186.441 25.4277 186.137 25.8379C185.832 26.2363 185.422 26.6406 184.906 27.0508C184.391 27.4609 183.723 27.8125 182.902 28.1055C182.094 28.3984 181.25 28.5449 180.371 28.5449C177.91 28.5449 176.088 27.8066 174.904 26.3301C173.721 24.8418 173.129 22.709 173.129 19.9316C173.129 17.9746 173.393 16.5977 173.92 15.8008C174.189 15.3906 174.6 15.0098 175.15 14.6582C175.701 14.2949 176.17 14.1133 176.557 14.1133C176.838 14.1133 176.979 14.2773 176.979 14.6055C176.979 14.6172 176.891 15.127 176.715 16.1348C176.539 17.1426 176.451 18.1211 176.451 19.0703ZM185.521 10.4746C185.873 10.7441 186.049 11.0195 186.049 11.3008C186.049 11.5938 185.814 11.9512 185.346 12.373C184.877 12.7832 184.443 12.9883 184.045 12.9883C183.705 12.9883 183.307 12.8828 182.85 12.6719C181.865 12.2148 180.969 11.9863 180.16 11.9863C178.379 11.9863 176.662 12.5605 175.01 13.709C174.506 14.0488 174.201 14.2188 174.096 14.2188C173.932 14.2188 173.85 14.1191 173.85 13.9199C173.85 13.7793 173.914 13.5859 174.043 13.3398C174.172 13.0938 174.289 12.9062 174.395 12.7773C175.285 11.6406 176.27 10.8027 177.348 10.2637C178.426 9.72461 179.791 9.45508 181.443 9.45508C182.182 9.45508 182.938 9.54297 183.711 9.71875C184.484 9.89453 185.088 10.1465 185.521 10.4746ZM194.838 14.3945V20.5469C194.838 21.5547 194.896 22.4102 195.014 23.1133C195.131 23.8047 195.301 24.3672 195.523 24.8008C195.758 25.2344 196.045 25.5449 196.385 25.7324C196.736 25.9199 197.146 26.0137 197.615 26.0137C198.166 26.0137 198.623 25.9492 198.986 25.8203C199.361 25.6797 199.672 25.5332 199.918 25.3809C200.164 25.2168 200.369 25.0703 200.533 24.9414C200.697 24.8008 200.861 24.7305 201.025 24.7305C201.178 24.7305 201.289 24.7773 201.359 24.8711C201.43 24.9531 201.465 25.0645 201.465 25.2051C201.465 25.4043 201.383 25.6914 201.219 26.0664C201.066 26.4297 200.803 26.7988 200.428 27.1738C200.053 27.5371 199.555 27.8535 198.934 28.123C198.324 28.4043 197.557 28.5449 196.631 28.5449C195.729 28.5449 194.961 28.416 194.328 28.1582C193.707 27.9004 193.197 27.4844 192.799 26.9102C192.4 26.3242 192.113 25.5684 191.938 24.6426C191.762 23.7051 191.674 22.5566 191.674 21.1973V14.3945C191.674 14.1367 191.727 13.9434 191.832 13.8145C191.949 13.6738 192.09 13.5742 192.254 13.5156C192.43 13.457 192.605 13.4277 192.781 13.4277C192.969 13.4277 193.133 13.4277 193.273 13.4277C193.484 13.4277 193.684 13.4395 193.871 13.4629C194.07 13.4746 194.24 13.5156 194.381 13.5859C194.521 13.6445 194.633 13.7383 194.715 13.8672C194.797 13.9961 194.838 14.1719 194.838 14.3945ZM190.76 10.5801V11.582C190.76 11.875 190.695 12.1035 190.566 12.2676C190.438 12.4316 190.191 12.5137 189.828 12.5137H189.002C188.592 12.5137 188.387 12.3848 188.387 12.127C188.387 11.8105 188.639 11.377 189.143 10.8262C189.658 10.2754 190.068 10 190.373 10C190.631 10 190.76 10.1934 190.76 10.5801ZM194.838 6.80078V9.06836C194.838 9.43164 194.92 9.67773 195.084 9.80664C195.248 9.93555 195.477 10 195.77 10H200.48C200.891 10 201.096 10.1348 201.096 10.4043C201.096 10.6855 200.896 11.0371 200.498 11.459C200.111 11.8809 199.725 12.1621 199.338 12.3027C198.963 12.4434 198.289 12.5137 197.316 12.5137H192.605C192.312 12.5137 192.084 12.4492 191.92 12.3203C191.756 12.1914 191.674 11.9453 191.674 11.582V8.25977C191.674 7.61523 191.961 7.08789 192.535 6.67773C193.109 6.25586 193.672 6.04492 194.223 6.04492C194.633 6.04492 194.838 6.29688 194.838 6.80078ZM207.318 10.2109V25.9082C207.318 26.3535 207.213 26.7168 207.002 26.998C206.697 27.3496 206.334 27.6367 205.912 27.8594C205.502 28.0703 205.121 28.1758 204.77 28.1758C204.359 28.1758 204.154 27.9238 204.154 27.4199V11.7227C204.154 11.2773 204.26 10.9199 204.471 10.6504C204.775 10.2988 205.133 10.0117 205.543 9.78906C205.965 9.56641 206.352 9.45508 206.703 9.45508C207.113 9.45508 207.318 9.70703 207.318 10.2109ZM207.318 1.05273V3.60156C207.318 4.04688 207.213 4.41016 207.002 4.69141C206.697 5.04297 206.334 5.33008 205.912 5.55273C205.502 5.76367 205.121 5.86914 204.77 5.86914C204.359 5.86914 204.154 5.61719 204.154 5.11328V2.56445C204.154 2.10742 204.26 1.75 204.471 1.49219C204.775 1.14062 205.133 0.853516 205.543 0.630859C205.965 0.408203 206.352 0.296875 206.703 0.296875C207.113 0.296875 207.318 0.548828 207.318 1.05273ZM218.691 9.45508C221.363 9.45508 223.326 10.2461 224.58 11.8281C225.846 13.3984 226.479 15.7188 226.479 18.7891C226.479 19.7383 226.355 20.7578 226.109 21.8477C225.875 22.9258 225.553 23.8867 225.143 24.7305C224.697 25.6211 224.152 26.377 223.508 26.998C222.863 27.6191 222.342 27.9297 221.943 27.9297C221.697 27.9297 221.574 27.8184 221.574 27.5957C221.574 27.5254 221.615 27.4316 221.697 27.3145C221.779 27.1973 221.891 27.0215 222.031 26.7871C222.172 26.541 222.295 26.2598 222.4 25.9434C222.881 24.6309 223.121 22.7734 223.121 20.3711C223.121 19.0469 223.027 17.8984 222.84 16.9258C222.664 15.9414 222.365 15.0684 221.943 14.3066C221.533 13.5449 220.959 12.9707 220.221 12.584C219.482 12.1855 218.58 11.9863 217.514 11.9863C216.037 11.9863 214.514 12.5254 212.943 13.6035C212.885 13.6504 212.797 13.7148 212.68 13.7969C212.562 13.8672 212.469 13.9258 212.398 13.9727C212.34 14.0195 212.275 14.0605 212.205 14.0957C212.135 14.1309 212.076 14.1484 212.029 14.1484C211.865 14.1484 211.783 14.0488 211.783 13.8496C211.783 13.7207 211.848 13.5332 211.977 13.2871C212.117 13.041 212.234 12.8594 212.328 12.7422C214.039 10.5508 216.16 9.45508 218.691 9.45508ZM214.402 18.2969C214.402 19.1172 214.42 19.8203 214.455 20.4062C214.49 20.9922 214.555 21.6016 214.648 22.2344C214.754 22.8672 214.906 23.3945 215.105 23.8164C215.316 24.2383 215.574 24.625 215.879 24.9766C216.195 25.3281 216.594 25.5918 217.074 25.7676C217.555 25.9316 218.117 26.0137 218.762 26.0137C219.312 26.0137 219.793 25.9375 220.203 25.7852C220.625 25.6328 220.865 25.5566 220.924 25.5566C221.17 25.5566 221.293 25.6855 221.293 25.9434C221.293 26.4707 220.912 27.0391 220.15 27.6484C219.4 28.2461 218.475 28.5449 217.373 28.5449C216.354 28.5449 215.463 28.375 214.701 28.0352C213.951 27.6953 213.348 27.25 212.891 26.6992C212.434 26.1484 212.064 25.457 211.783 24.625C211.514 23.793 211.332 22.9551 211.238 22.1113C211.145 21.2676 211.098 20.3125 211.098 19.2461C211.098 18.6484 211.156 18.0215 211.273 17.3652C211.391 16.6973 211.549 16.1875 211.748 15.8359C211.994 15.4141 212.387 15.0273 212.926 14.6758C213.477 14.3242 213.945 14.1484 214.332 14.1484C214.625 14.1484 214.771 14.3242 214.771 14.6758C214.771 14.7344 214.707 15.1855 214.578 16.0293C214.461 16.873 214.402 17.6289 214.402 18.2969ZM230.311 27.4199V17.9629C230.311 17.3066 230.469 16.8027 230.785 16.4512C231.102 16.0879 231.477 15.7656 231.91 15.4844C232.344 15.1914 232.684 15.0449 232.93 15.0449C233.293 15.0449 233.475 15.2969 233.475 15.8008V25.9082C233.475 26.5527 233.182 27.0918 232.596 27.5254C232.021 27.959 231.465 28.1758 230.926 28.1758C230.516 28.1758 230.311 27.9238 230.311 27.4199ZM234.441 10.9492C235.109 10.457 235.807 10.0879 236.533 9.8418C237.26 9.58398 237.91 9.45508 238.484 9.45508C240.523 9.45508 242.018 10.0293 242.967 11.1777C243.916 12.3145 244.391 14.2246 244.391 16.9082V25.9082C244.391 26.541 244.104 27.0801 243.529 27.5254C242.955 27.959 242.393 28.1758 241.842 28.1758C241.432 28.1758 241.227 27.9238 241.227 27.4199V20.4766C241.227 19.375 241.215 18.543 241.191 17.9805C241.18 17.418 241.133 16.7441 241.051 15.959C240.98 15.1738 240.857 14.5938 240.682 14.2188C240.506 13.832 240.266 13.4395 239.961 13.041C239.668 12.6426 239.281 12.3672 238.801 12.2148C238.32 12.0625 237.746 11.9863 237.078 11.9863C235.73 11.9863 233.885 12.8828 231.541 14.6758C231.166 14.9688 230.873 15.1152 230.662 15.1152C230.428 15.1152 230.311 14.916 230.311 14.5176V11.7227C230.311 11.0898 230.598 10.5566 231.172 10.123C231.758 9.67773 232.32 9.45508 232.859 9.45508C233.27 9.45508 233.475 9.70703 233.475 10.2109V10.6504C233.475 11.0723 233.568 11.2832 233.756 11.2832C233.92 11.2832 234.148 11.1719 234.441 10.9492Z"
            fill="gray"
          />
        </svg>